<svg t="1711078117015" class="icon" viewBox="0 0 1275 1024" version="1.1" xmlns="http://www.w3.org/2000/svg" p-id="17397" width="200" height="200"><path d="M1166.536134 0H109.362763a109.362763 109.362763 0 0 0-109.362763 109.362763v607.327874a109.362763 109.362763 0 0 0 109.362763 109.362763h437.45105v125.038092h-121.028124a36.454254 36.454254 0 1 0 0 72.908508h423.962976a36.454254 36.454254 0 0 0 0-72.908508h-118.840869v-125.038092H1166.536134a109.362763 109.362763 0 0 0 109.362762-109.362763V109.362763a109.362763 109.362763 0 0 0-109.362762-109.362763zM667.841937 951.091492h-60.14952v-125.038092h60.14952zM1202.990388 716.690637a36.454254 36.454254 0 0 1-36.454254 36.454254H109.362763a36.454254 36.454254 0 0 1-36.454255-36.454254V109.362763a36.454254 36.454254 0 0 1 36.454255-36.454255h1057.173371a36.454254 36.454254 0 0 1 36.454254 36.454255z" p-id="17398"></path></svg>